<svg width="1541" height="1187" viewBox="0 0 1541 1187" fill="none" xmlns="http://www.w3.org/2000/svg">
<rect x="0.734375" y="0.589844" width="1540" height="1186" fill="black"/>
<rect x="553.234" y="448.59" width="29" height="29" fill="white"/>
<rect x="553.234" y="477.59" width="29" height="29" fill="white"/>
<rect x="524.234" y="506.59" width="29" height="29" fill="white"/>
<rect x="495.234" y="506.59" width="29" height="29" fill="white"/>
<rect x="466.234" y="535.59" width="29" height="29" fill="white"/>
<rect x="437.234" y="564.59" width="29" height="29" fill="white"/>
<rect x="437.234" y="593.59" width="29" height="29" fill="white"/>
<rect x="437.234" y="622.59" width="29" height="29" fill="white"/>
<rect x="437.234" y="651.59" width="29" height="29" fill="white"/>
<rect x="466.234" y="680.59" width="29" height="29" fill="white"/>
<rect x="495.234" y="709.59" width="29" height="29" fill="white"/>
<rect x="524.234" y="709.59" width="29" height="29" fill="white"/>
<rect x="553.234" y="709.59" width="29" height="29" fill="white"/>
<rect x="582.234" y="709.59" width="29" height="29" fill="white"/>
<rect x="582.234" y="738.59" width="29" height="29" fill="white"/>
<rect x="611.234" y="767.59" width="29" height="29" fill="white"/>
<rect x="640.234" y="796.59" width="29" height="29" fill="white"/>
<rect x="669.234" y="825.59" width="29" height="29" fill="white"/>
<rect x="698.234" y="825.59" width="29" height="29" fill="white"/>
<rect x="727.234" y="854.59" width="29" height="29" fill="white"/>
<rect x="756.234" y="854.59" width="29" height="29" fill="white"/>
<rect x="785.234" y="854.59" width="29" height="29" fill="white"/>
<rect x="814.234" y="854.59" width="29" height="29" fill="white"/>
<rect x="843.234" y="854.59" width="29" height="29" fill="white"/>
<rect x="872.234" y="854.59" width="29" height="29" fill="white"/>
<rect x="901.234" y="854.59" width="29" height="29" fill="white"/>
<rect x="930.234" y="825.59" width="29" height="29" fill="white"/>
<rect x="959.234" y="825.59" width="29" height="29" fill="white"/>
<rect x="988.234" y="796.59" width="29" height="29" fill="white"/>
<rect x="1017.23" y="767.59" width="29" height="29" fill="white"/>
<rect x="1017.23" y="738.59" width="29" height="29" fill="white"/>
<rect x="1046.23" y="709.59" width="29" height="29" fill="white"/>
<rect x="1046.23" y="680.59" width="29" height="29" fill="white"/>
<rect x="1046.23" y="651.59" width="29" height="29" fill="white"/>
<rect x="1017.23" y="622.59" width="29" height="29" fill="white"/>
<rect x="988.234" y="622.59" width="29" height="29" fill="white"/>
<rect x="988.234" y="651.59" width="29" height="29" fill="white"/>
<rect x="959.234" y="651.59" width="29" height="29" fill="white"/>
<rect x="930.234" y="651.59" width="29" height="29" fill="white"/>
<rect x="785.234" y="651.59" width="29" height="29" fill="white"/>
<rect x="756.234" y="680.59" width="29" height="29" fill="white"/>
<rect x="727.234" y="680.59" width="29" height="29" fill="white"/>
<rect x="727.234" y="651.59" width="29" height="29" fill="white"/>
<rect x="727.234" y="622.59" width="29" height="29" fill="white"/>
<rect x="698.234" y="622.59" width="29" height="29" fill="white"/>
<rect x="582.234" y="589.379" width="29" height="29" fill="white"/>
<rect x="553.234" y="560.379" width="29" height="29" fill="white"/>
<rect x="524.234" y="560.379" width="29" height="29" fill="white"/>
<rect x="524.234" y="589.379" width="29" height="29" fill="white"/>
<rect x="495.234" y="589.379" width="29" height="29" fill="white"/>
<rect x="495.234" y="618.379" width="29" height="29" fill="white"/>
<rect x="553.234" y="618.379" width="29" height="29" fill="white"/>
<rect x="553.234" y="647.379" width="29" height="29" fill="white"/>
<rect x="582.234" y="647.379" width="29" height="29" fill="white"/>
<rect x="756.234" y="651.59" width="29" height="29" fill="white"/>
<rect x="988.234" y="680.59" width="29" height="29" fill="white"/>
<rect x="959.234" y="680.59" width="29" height="29" fill="white"/>
<rect x="1075.23" y="622.59" width="29" height="29" fill="white"/>
<rect x="1075.23" y="593.59" width="29" height="29" fill="white"/>
<rect x="1075.23" y="564.59" width="29" height="29" fill="white"/>
<rect x="1075.23" y="535.59" width="29" height="29" fill="white"/>
<rect x="1046.23" y="506.59" width="29" height="29" fill="white"/>
<rect x="1046.23" y="477.59" width="29" height="29" fill="white"/>
<rect x="1046.23" y="448.59" width="29" height="29" fill="white"/>
<rect x="1017.23" y="419.59" width="29" height="29" fill="white"/>
<rect x="1017.23" y="390.59" width="29" height="29" fill="white"/>
<rect x="1046.23" y="390.59" width="29" height="29" fill="white"/>
<rect x="1046.23" y="361.59" width="29" height="29" fill="white"/>
<rect x="1017.23" y="332.59" width="29" height="29" fill="white"/>
<rect x="988.234" y="303.59" width="29" height="29" fill="white"/>
<rect x="988.234" y="361.59" width="29" height="29" fill="white"/>
<rect x="988.234" y="419.59" width="29" height="29" fill="white"/>
<rect x="988.234" y="448.59" width="29" height="29" fill="white"/>
<rect x="959.234" y="448.59" width="29" height="29" fill="white"/>
<rect x="930.234" y="448.59" width="29" height="29" fill="white"/>
<rect x="901.234" y="448.59" width="29" height="29" fill="white"/>
<rect x="959.234" y="303.59" width="29" height="29" fill="white"/>
<rect x="959.234" y="361.59" width="29" height="29" fill="white"/>
<rect x="930.234" y="332.59" width="29" height="29" fill="white"/>
<rect x="901.234" y="332.59" width="29" height="29" fill="white"/>
<rect x="872.234" y="303.59" width="29" height="29" fill="white"/>
<rect x="843.234" y="303.59" width="29" height="29" fill="white"/>
<rect x="814.234" y="303.59" width="29" height="29" fill="white"/>
<rect x="785.234" y="303.59" width="29" height="29" fill="white"/>
<rect x="756.234" y="303.59" width="29" height="29" fill="white"/>
<rect x="727.234" y="303.59" width="29" height="29" fill="white"/>
<rect x="698.234" y="332.59" width="29" height="29" fill="white"/>
<rect x="669.234" y="332.59" width="29" height="29" fill="white"/>
<rect x="640.234" y="361.59" width="29" height="29" fill="white"/>
<rect x="611.234" y="361.59" width="29" height="29" fill="white"/>
<rect x="582.234" y="390.59" width="29" height="29" fill="white"/>
<rect x="582.234" y="419.59" width="29" height="29" fill="white"/>
</svg>
